<mxfile host="Electron" modified="2023-12-29T19:45:27.089Z" agent="Mozilla/5.0 (Macintosh; Intel Mac OS X 10_15_7) AppleWebKit/537.36 (KHTML, like Gecko) draw.io/22.1.15 Chrome/120.0.6099.109 Electron/28.1.0 Safari/537.36" etag="VhpTdTf6Gg2SLiAN3f_A" version="22.1.15" type="device">
  <diagram name="Page-1" id="HL5CZwhXDHboLwVlMWie">
    <mxGraphModel dx="1172" dy="596" grid="0" gridSize="10" guides="1" tooltips="1" connect="1" arrows="1" fold="1" page="1" pageScale="1" pageWidth="1169" pageHeight="827" math="0" shadow="0">
      <root>
        <mxCell id="0" />
        <mxCell id="1" parent="0" />
        <mxCell id="3jSWP2mDNv_P5NQxNVJ7-17" value="" style="group" vertex="1" connectable="0" parent="1">
          <mxGeometry x="50" y="110" width="423" height="244" as="geometry" />
        </mxCell>
        <mxCell id="3jSWP2mDNv_P5NQxNVJ7-1" value="SRC Bucket" style="outlineConnect=0;fontColor=#232F3E;gradientColor=none;fillColor=#277116;strokeColor=none;dashed=0;verticalLabelPosition=bottom;verticalAlign=top;align=center;html=1;fontSize=12;fontStyle=0;aspect=fixed;pointerEvents=1;shape=mxgraph.aws4.bucket_with_objects;" vertex="1" parent="3jSWP2mDNv_P5NQxNVJ7-17">
          <mxGeometry x="348" y="166" width="75" height="78" as="geometry" />
        </mxCell>
        <mxCell id="3jSWP2mDNv_P5NQxNVJ7-2" value="" style="sketch=0;pointerEvents=1;shadow=0;dashed=0;html=1;strokeColor=none;fillColor=#434445;aspect=fixed;labelPosition=center;verticalLabelPosition=bottom;verticalAlign=top;align=center;outlineConnect=0;shape=mxgraph.vvd.web_browser;" vertex="1" parent="3jSWP2mDNv_P5NQxNVJ7-17">
          <mxGeometry x="110" y="30" width="56.34" height="40" as="geometry" />
        </mxCell>
        <mxCell id="3jSWP2mDNv_P5NQxNVJ7-4" style="edgeStyle=orthogonalEdgeStyle;rounded=0;orthogonalLoop=1;jettySize=auto;html=1;curved=1;" edge="1" parent="3jSWP2mDNv_P5NQxNVJ7-17" source="3jSWP2mDNv_P5NQxNVJ7-3" target="3jSWP2mDNv_P5NQxNVJ7-2">
          <mxGeometry relative="1" as="geometry">
            <Array as="points">
              <mxPoint x="20" y="48" />
            </Array>
          </mxGeometry>
        </mxCell>
        <mxCell id="3jSWP2mDNv_P5NQxNVJ7-3" value="" style="pointerEvents=1;shadow=0;dashed=0;html=1;strokeColor=none;labelPosition=center;verticalLabelPosition=bottom;verticalAlign=top;align=center;fillColor=#505050;shape=mxgraph.mscae.intune.account_portal" vertex="1" parent="3jSWP2mDNv_P5NQxNVJ7-17">
          <mxGeometry y="180" width="43" height="50" as="geometry" />
        </mxCell>
        <mxCell id="3jSWP2mDNv_P5NQxNVJ7-7" style="edgeStyle=orthogonalEdgeStyle;rounded=0;orthogonalLoop=1;jettySize=auto;html=1;curved=1;" edge="1" parent="3jSWP2mDNv_P5NQxNVJ7-17" source="3jSWP2mDNv_P5NQxNVJ7-5" target="3jSWP2mDNv_P5NQxNVJ7-1">
          <mxGeometry relative="1" as="geometry" />
        </mxCell>
        <mxCell id="3jSWP2mDNv_P5NQxNVJ7-5" value="Object ( Image File )" style="sketch=0;outlineConnect=0;fontColor=#232F3E;gradientColor=none;fillColor=#7AA116;strokeColor=none;dashed=0;verticalLabelPosition=bottom;verticalAlign=top;align=center;html=1;fontSize=12;fontStyle=0;aspect=fixed;pointerEvents=1;shape=mxgraph.aws4.object;" vertex="1" parent="3jSWP2mDNv_P5NQxNVJ7-17">
          <mxGeometry x="300" y="40" width="58" height="58" as="geometry" />
        </mxCell>
        <mxCell id="3jSWP2mDNv_P5NQxNVJ7-6" style="edgeStyle=orthogonalEdgeStyle;rounded=0;orthogonalLoop=1;jettySize=auto;html=1;curved=1;" edge="1" parent="3jSWP2mDNv_P5NQxNVJ7-17" source="3jSWP2mDNv_P5NQxNVJ7-2" target="3jSWP2mDNv_P5NQxNVJ7-5">
          <mxGeometry relative="1" as="geometry">
            <Array as="points">
              <mxPoint x="210" y="50" />
              <mxPoint x="210" />
              <mxPoint x="329" />
            </Array>
          </mxGeometry>
        </mxCell>
        <mxCell id="3jSWP2mDNv_P5NQxNVJ7-21" value="Upload File&amp;nbsp;" style="text;html=1;strokeColor=none;fillColor=none;align=center;verticalAlign=middle;whiteSpace=wrap;rounded=0;" vertex="1" parent="3jSWP2mDNv_P5NQxNVJ7-17">
          <mxGeometry x="55" y="103" width="40" height="20" as="geometry" />
        </mxCell>
        <mxCell id="3jSWP2mDNv_P5NQxNVJ7-9" style="edgeStyle=orthogonalEdgeStyle;rounded=0;orthogonalLoop=1;jettySize=auto;html=1;" edge="1" parent="1" source="3jSWP2mDNv_P5NQxNVJ7-1" target="3jSWP2mDNv_P5NQxNVJ7-8">
          <mxGeometry relative="1" as="geometry" />
        </mxCell>
        <mxCell id="3jSWP2mDNv_P5NQxNVJ7-19" value="Two" parent="0" />
        <mxCell id="3jSWP2mDNv_P5NQxNVJ7-18" value="" style="group" vertex="1" connectable="0" parent="3jSWP2mDNv_P5NQxNVJ7-19">
          <mxGeometry x="540" y="137.75" width="495" height="216.25" as="geometry" />
        </mxCell>
        <mxCell id="3jSWP2mDNv_P5NQxNVJ7-8" value="S3 PUT Event&amp;nbsp;" style="outlineConnect=0;dashed=0;verticalLabelPosition=bottom;verticalAlign=top;align=center;html=1;shape=mxgraph.aws3.event_event_based;fillColor=#759C3E;gradientColor=none;" vertex="1" parent="3jSWP2mDNv_P5NQxNVJ7-18">
          <mxGeometry width="60" height="82.5" as="geometry" />
        </mxCell>
        <mxCell id="3jSWP2mDNv_P5NQxNVJ7-10" value="" style="outlineConnect=0;fontColor=#232F3E;gradientColor=none;fillColor=#D05C17;strokeColor=none;dashed=0;verticalLabelPosition=bottom;verticalAlign=top;align=center;html=1;fontSize=12;fontStyle=0;aspect=fixed;pointerEvents=1;shape=mxgraph.aws4.lambda_function;" vertex="1" parent="3jSWP2mDNv_P5NQxNVJ7-18">
          <mxGeometry x="210" y="2.25" width="78" height="78" as="geometry" />
        </mxCell>
        <mxCell id="3jSWP2mDNv_P5NQxNVJ7-11" style="edgeStyle=orthogonalEdgeStyle;rounded=0;orthogonalLoop=1;jettySize=auto;html=1;" edge="1" parent="3jSWP2mDNv_P5NQxNVJ7-18" source="3jSWP2mDNv_P5NQxNVJ7-8" target="3jSWP2mDNv_P5NQxNVJ7-10">
          <mxGeometry relative="1" as="geometry" />
        </mxCell>
        <mxCell id="3jSWP2mDNv_P5NQxNVJ7-12" value="Destination Bucket" style="outlineConnect=0;fontColor=#232F3E;gradientColor=none;fillColor=#277116;strokeColor=none;dashed=0;verticalLabelPosition=bottom;verticalAlign=top;align=center;html=1;fontSize=12;fontStyle=0;aspect=fixed;pointerEvents=1;shape=mxgraph.aws4.bucket_with_objects;" vertex="1" parent="3jSWP2mDNv_P5NQxNVJ7-18">
          <mxGeometry x="420" y="138.25" width="75" height="78" as="geometry" />
        </mxCell>
        <mxCell id="3jSWP2mDNv_P5NQxNVJ7-16" style="edgeStyle=orthogonalEdgeStyle;rounded=0;orthogonalLoop=1;jettySize=auto;html=1;" edge="1" parent="3jSWP2mDNv_P5NQxNVJ7-18" source="3jSWP2mDNv_P5NQxNVJ7-14" target="3jSWP2mDNv_P5NQxNVJ7-12">
          <mxGeometry relative="1" as="geometry" />
        </mxCell>
        <mxCell id="3jSWP2mDNv_P5NQxNVJ7-14" value="Object ( Image File )&lt;br&gt;Compressed" style="sketch=0;outlineConnect=0;fontColor=#232F3E;gradientColor=none;fillColor=#7AA116;strokeColor=none;dashed=0;verticalLabelPosition=bottom;verticalAlign=top;align=center;html=1;fontSize=12;fontStyle=0;aspect=fixed;pointerEvents=1;shape=mxgraph.aws4.object;" vertex="1" parent="3jSWP2mDNv_P5NQxNVJ7-18">
          <mxGeometry x="400" y="42.25" width="20" height="20" as="geometry" />
        </mxCell>
        <mxCell id="3jSWP2mDNv_P5NQxNVJ7-15" style="edgeStyle=orthogonalEdgeStyle;rounded=0;orthogonalLoop=1;jettySize=auto;html=1;" edge="1" parent="3jSWP2mDNv_P5NQxNVJ7-18" source="3jSWP2mDNv_P5NQxNVJ7-10" target="3jSWP2mDNv_P5NQxNVJ7-14">
          <mxGeometry relative="1" as="geometry" />
        </mxCell>
      </root>
    </mxGraphModel>
  </diagram>
</mxfile>
